<svg width="80.000000" height="80.000000" viewBox="0 0 80 80" fill="none" xmlns="http://www.w3.org/2000/svg" xmlns:xlink="http://www.w3.org/1999/xlink">
	<desc>
			Created with Pixso.
	</desc>
	<defs>
		<clipPath id="clip311_702">
			<rect id="time-management 1" rx="30.000000" width="80.000000" height="80.000000" fill="white"/>
		</clipPath>
	</defs>
	<rect id="time-management 1" rx="30.000000" width="80.000000" height="80.000000" fill="#9033F9"/>
	<g clip-path="url(#clip311_702)">
		<path id="Vector" d="M37.0938 14.9271C36.8438 15.1666 36.8333 15.2188 36.8333 16.7916L36.8333 18.3959L36.1355 18.625C35.7395 18.75 34.9688 19.0729 34.4062 19.3334L33.3855 19.8021L32.2605 18.6979C30.6458 17.1041 30.8542 17.0521 28.375 19.5416C25.8855 22.0209 25.9375 21.8125 27.5312 23.4271L28.6355 24.5521L28.1667 25.5729C27.9062 26.1354 27.5833 26.9062 27.4583 27.2916L27.2292 28L25.625 28C24.052 28 24 28.0104 23.7605 28.2604L23.5 28.5104L23.5 31.3334L23.5 34.1562L23.7605 34.4062C24 34.6562 24.052 34.6666 25.625 34.6666L27.2292 34.6666L27.4583 35.3646C27.5833 35.7604 27.9062 36.5312 28.1667 37.0938L28.6355 38.1146L27.5312 39.2396C25.9375 40.8541 25.8855 40.6459 28.375 43.125C30.8542 45.6146 30.6458 45.5625 32.2605 43.9688L33.3855 42.8646L34.4062 43.3334C34.9688 43.5938 35.7395 43.9166 36.1355 44.0416L36.8333 44.2709L36.8333 45.875C36.8333 47.4479 36.8438 47.5 37.0938 47.7396L37.3438 48L40.1667 48L42.9895 48L43.2395 47.7396C43.4895 47.5 43.5 47.4479 43.5 45.875L43.5 44.2709L44.2083 44.0416C44.5938 43.9166 45.3645 43.5938 45.927 43.3334L46.948 42.8646L48.073 43.9688C49.6875 45.5625 49.4792 45.6146 51.9583 43.125C54.448 40.6459 54.3958 40.8541 52.802 39.2396L51.698 38.1146L52.1667 37.0938C52.427 36.5312 52.75 35.7604 52.875 35.3646L53.1042 34.6666L54.7083 34.6666C56.2812 34.6666 56.3333 34.6562 56.573 34.4062L56.8333 34.1562L56.8333 31.3334L56.8333 28.5104L56.573 28.2604C56.3333 28.0104 56.2812 28 54.7083 28L53.1042 28L52.875 27.2916C52.75 26.9062 52.427 26.1354 52.1667 25.5729L51.698 24.5521L52.802 23.4271C54.3958 21.8125 54.448 22.0209 51.9583 19.5416C49.4792 17.0521 49.6875 17.1041 48.073 18.6979L46.948 19.8021L45.927 19.3334C45.3645 19.0729 44.5938 18.75 44.2083 18.625L43.5 18.3959L43.5 16.7916C43.5 15.2188 43.4895 15.1666 43.2395 14.9271L42.9895 14.6666L40.1667 14.6666L37.3438 14.6666L37.0938 14.9271ZM41.8333 17.8334C41.8333 19.7084 41.8542 19.7291 43.2395 20.0938C43.8333 20.2396 44.7083 20.5938 45.6042 21.0521C46.6145 21.5625 47.1042 21.7604 47.2708 21.7084C47.4062 21.6771 47.9792 21.1875 48.552 20.6041L49.5938 19.5625L50.7605 20.7291L51.9375 21.8959L50.8438 23.0104C50.1875 23.6666 49.75 24.1979 49.75 24.3229C49.75 24.4375 50.073 25.1562 50.4583 25.9271C50.9167 26.8229 51.2605 27.6666 51.4062 28.2604C51.7708 29.6459 51.7917 29.6666 53.6667 29.6666L55.1667 29.6666L55.1667 31.3334L55.1667 33L53.6667 33C51.802 33 51.7708 33.0209 51.427 34.3541C51.2917 34.8959 50.9167 35.8125 50.4583 36.7188C49.9375 37.7709 49.7395 38.2604 49.7812 38.4375C49.823 38.5729 50.3125 39.1459 50.8958 39.7188L51.9375 40.7604L50.7708 41.9271L49.6042 43.1041L48.4895 42.0104C47.8333 41.3541 47.302 40.9166 47.177 40.9166C47.0625 40.9166 46.3438 41.2396 45.573 41.625C44.677 42.0834 43.8333 42.4271 43.2395 42.5729C41.8542 42.9375 41.8333 42.9584 41.8333 44.8334L41.8333 46.3334L40.1667 46.3334L38.5 46.3334L38.5 44.8334C38.5 42.9791 38.4792 42.9375 37.1458 42.5938C36.6355 42.4584 35.6355 42.0521 34.7812 41.625C33.7292 41.1041 33.2292 40.9062 33.0625 40.9479C32.927 40.9896 32.3542 41.4791 31.7812 42.0625L30.7395 43.1041L29.573 41.9375L28.3958 40.7709L29.4895 39.6562C30.1458 39 30.5833 38.4688 30.5833 38.3438C30.5833 38.2291 30.2605 37.5104 29.875 36.7396C29.4167 35.8438 29.073 35 28.927 34.4062C28.5625 33.0209 28.5417 33 26.6667 33L25.1667 33L25.1667 31.3334L25.1667 29.6666L26.6667 29.6666C28.5312 29.6666 28.5625 29.6459 28.9062 28.3125C29.0417 27.7709 29.4167 26.8541 29.875 25.9479C30.3958 24.8959 30.5938 24.4062 30.552 24.2291C30.5105 24.0938 30.0208 23.5209 29.4375 22.9479L28.3958 21.9062L29.5625 20.7396L30.7292 19.5625L31.8438 20.6562C32.5 21.3125 33.0312 21.75 33.1562 21.75C33.2708 21.75 33.9895 21.4271 34.7605 21.0416C35.6562 20.5834 36.5 20.2396 37.0938 20.0938C38.4792 19.7291 38.5 19.7084 38.5 17.8334L38.5 16.3334L40.1667 16.3334L41.8333 16.3334L41.8333 17.8334Z" fill-rule="nonzero" fill="#FFFFFF"/>
		<path id="Vector" d="M38.604 21.448C36.3438 21.8439 34.3853 22.9064 32.8645 24.5521C31.6875 25.8126 30.927 27.198 30.4688 28.9376C30.1562 30.0834 30.125 32.448 30.4062 33.5626C30.8958 35.5001 31.7395 36.9896 33.1875 38.4167C34.5728 39.7917 36.0415 40.6146 37.9375 41.0939C39.052 41.3751 41.4165 41.3439 42.5625 41.0314C44.5103 40.5105 45.7812 39.7814 47.1978 38.3646C48.6145 36.948 49.3438 35.6876 49.875 33.7292C50.2083 32.5001 50.2083 30.2292 49.875 28.9689C49.3853 27.0939 48.5625 25.6355 47.2083 24.2917C45.875 22.9584 44.3958 22.1042 42.5728 21.6355C41.6458 21.3959 39.479 21.2917 38.604 21.448ZM41.4478 23.1146C45.9165 23.8021 49.052 28.0314 48.4062 32.4792C47.5312 38.4167 40.9165 41.5521 35.8333 38.4271C31.5 35.7605 30.5312 29.948 33.7708 26.0105C35.5938 23.7814 38.552 22.6667 41.4478 23.1146Z" fill-rule="nonzero" fill="#FFFFFF"/>
		<path id="Vector" d="M39.5935 25.7605C39.3435 26.0001 39.333 26.0521 39.333 27.5314C39.333 28.8334 39.3123 29.0417 39.1665 29.0417C38.8853 29.0417 37.9268 30.0939 37.7915 30.5626C37.4998 31.5417 37.708 32.323 38.4478 33.0521C39.5103 34.1146 40.833 34.1146 41.9165 33.0314C42.208 32.7396 42.458 32.4167 42.458 32.3334C42.458 32.1876 42.708 32.1667 44.3853 32.1667C46.3018 32.1667 46.3228 32.1667 46.5728 31.9064C46.9165 31.573 46.9165 31.0939 46.5728 30.7605C46.3228 30.5001 46.3018 30.5001 44.3853 30.5001C42.708 30.5001 42.458 30.4792 42.458 30.3334C42.458 30.1251 41.3748 29.0417 41.1665 29.0417C41.0205 29.0417 40.9998 28.8334 40.9998 27.5314C40.9998 26.0521 40.9893 26.0001 40.7393 25.7605C40.583 25.5939 40.3643 25.5001 40.1665 25.5001C39.9685 25.5001 39.7498 25.5939 39.5935 25.7605ZM40.7393 30.7605C40.906 30.9167 40.9998 31.1355 40.9998 31.3334C40.9998 31.5314 40.906 31.7501 40.7393 31.9064C40.229 32.4271 39.333 32.0626 39.333 31.3334C39.333 30.9064 39.7393 30.5001 40.1665 30.5001C40.3643 30.5001 40.583 30.5939 40.7393 30.7605Z" fill-rule="nonzero" fill="#FFFFFF"/>
		<path id="Vector" d="M16.2605 49.9166L16 50.177L16 57.1666L16 64.1562L16.2605 64.4166L16.5105 64.6666L31.75 64.6458C46.552 64.6145 47 64.6041 47.4583 64.4166C47.7188 64.302 51.2708 62.5 55.3645 60.4062C60.1875 57.927 62.9583 56.4583 63.25 56.1979C63.5 55.9791 63.8333 55.5416 63.9895 55.2083C64.2395 54.7083 64.2812 54.4791 64.2812 53.7812C64.2812 53.0208 64.2395 52.875 63.8542 52.052C63.3125 50.927 62.9167 50.4791 62.1145 50.0938C61.2708 49.6875 60.6667 49.6041 59.8958 49.802C59.5312 49.8958 56.823 51.2083 53.375 52.9479L47.4583 55.927L47.5417 55.5833C47.6875 54.9062 47.6145 53.802 47.3855 53.302C47.073 52.6145 46.4895 52.0104 45.8125 51.677L45.2188 51.3854L41.4792 51.3541L37.7292 51.3229L37.2292 50.8541C36.948 50.5938 36.4062 50.2291 36.0208 50.052L35.323 49.7188L25.9167 49.6875L16.5208 49.6562L16.2605 49.9166ZM25.1667 57.1666L25.1667 63L21.4167 63L17.6667 63L17.6667 57.1666L17.6667 51.3333L21.4167 51.3333L25.1667 51.3333L25.1667 57.1666ZM35.1042 51.4583C35.4062 51.5416 35.7292 51.7812 36.198 52.2604L36.8645 52.9479L40.9062 53C44.7812 53.052 44.9583 53.0625 45.2292 53.2708C45.7708 53.677 45.948 54.0104 45.948 54.6562C45.948 55.1562 45.8958 55.3229 45.6458 55.6458C45.1145 56.3438 45.198 56.3333 39.75 56.3333L34.8438 56.3333L34.5938 56.5938C34.427 56.75 34.3333 56.9688 34.3333 57.1666C34.3333 57.3645 34.427 57.5833 34.5938 57.7395L34.8438 58L40.9583 58L47.073 58L53.5417 54.7291C57.0938 52.927 60.1562 51.427 60.3438 51.3854C60.802 51.2916 61.427 51.4895 61.75 51.8229C62.1042 52.1979 62.6667 53.3854 62.6667 53.7604C62.6667 54.177 62.427 54.677 62.0833 54.9895C61.9167 55.1354 58.4062 56.9895 54.2812 59.1041L46.7812 62.9479L36.8125 62.9791L26.8333 63L26.8333 57.1666L26.8333 51.3333L30.75 51.3333C33.4895 51.3333 34.802 51.375 35.1042 51.4583Z" fill-rule="nonzero" fill="#FFFFFF"/>
	</g>
</svg>
