<svg width="80.000000" height="80.000000" viewBox="0 0 80 80" fill="none" xmlns="http://www.w3.org/2000/svg" xmlns:xlink="http://www.w3.org/1999/xlink">
	<desc>
			Created with Pixso.
	</desc>
	<defs>
		<clipPath id="clip311_750">
			<rect id="clock" width="53.333328" height="53.333328" transform="translate(13.333252 13.333252)" fill="white"/>
		</clipPath>
		<clipPath id="clip311_749">
			<rect id="time-management 1" rx="30.000000" width="80.000000" height="80.000000" fill="white"/>
		</clipPath>
	</defs>
	<rect id="time-management 1" rx="30.000000" width="80.000000" height="80.000000" fill="#FF5966"/>
	<g clip-path="url(#clip311_749)">
		<g clip-path="url(#clip311_750)">
			<path id="Vector" d="M14.9895 15.5625C14.4062 15.7709 13.9895 16.1146 13.677 16.6459L13.3855 17.1354L13.3542 25.2396C13.3333 33.3229 13.3333 33.3334 13.552 33.8541C13.7917 34.4166 14.3125 34.9375 14.8542 35.1666C15.1355 35.2812 16.073 35.3125 19.427 35.3125C23.5103 35.3125 23.6562 35.3021 23.854 35.1041C24.1145 34.8438 24.125 34.3646 23.8645 34.0521L23.6665 33.8021L19.479 33.75L15.2917 33.6979L15.0938 33.4479C14.9062 33.2188 14.8958 32.9479 14.8958 26.7604L14.8958 20.3125L25.3645 20.3125L35.8333 20.3125L35.8333 21.9688C35.8333 23.6771 35.927 24.1979 36.25 24.375C36.5625 24.5416 36.9583 24.5 37.1875 24.2709C37.3958 24.0625 37.4062 23.9584 37.375 20.5209L37.3438 17L37.0312 16.5416C36.6665 16.0312 36.177 15.6771 35.6353 15.5209C35.0312 15.3541 15.4688 15.3854 14.9895 15.5625ZM35.5728 17.2396C35.7915 17.4479 35.8333 17.5938 35.8333 18.125L35.8333 18.75L25.3645 18.75L14.8958 18.75L14.8958 18.1666C14.8958 17.6666 14.9375 17.5521 15.198 17.2812L15.5 16.9791L25.4165 16.9791L35.3228 16.9791L35.5728 17.2396Z" fill-rule="nonzero" fill="#FFFFFF"/>
			<path id="Vector" d="M18.7812 23.0208C18.2917 23.2188 18.198 23.8333 18.5938 24.2188L18.8438 24.4791L25.4167 24.4791C31.8438 24.4791 31.9792 24.4791 32.1875 24.2708C32.5 23.9583 32.4688 23.4062 32.125 23.1354C31.8542 22.9166 31.7708 22.9166 25.427 22.927C21.8958 22.927 18.9062 22.9688 18.7812 23.0208Z" fill-rule="nonzero" fill="#FFFFFF"/>
			<path id="Vector" d="M42.0413 23.1353C41.6975 23.4061 41.6663 23.9583 41.9788 24.2708C42.187 24.479 42.3225 24.479 51.6768 24.479L61.1663 24.479L61.4683 24.7811C61.7288 25.052 61.7705 25.1665 61.7705 25.6665L61.7705 26.2499L56.208 26.2499C50.7495 26.2499 50.6455 26.2499 50.3745 26.4686C50.0308 26.7395 49.9995 27.2915 50.312 27.604C50.5205 27.8124 50.6558 27.8124 56.1455 27.8124L61.7705 27.8124L61.7705 33.4165C61.7705 39.6458 61.8018 39.3749 61.062 39.5833C60.8538 39.6353 60.083 39.6874 59.3538 39.6874C58.1558 39.6874 57.9995 39.7083 57.812 39.8958C57.5518 40.1561 57.5413 40.6665 57.8018 40.927C57.9163 41.0415 58.1768 41.1665 58.385 41.2083C59.0205 41.3228 61.3643 41.1978 61.7705 41.0208C62.3018 40.7915 62.7913 40.354 63.0518 39.854C63.2808 39.427 63.2808 39.4165 63.312 32.2915C63.333 26.8645 63.312 25.0415 63.208 24.6874C63.0308 24.0208 62.1975 23.2083 61.5413 23.0415C61.187 22.9478 58.5413 22.9165 51.687 22.9165C42.3643 22.9165 42.3225 22.9165 42.0413 23.1353Z" fill-rule="nonzero" fill="#FFFFFF"/>
			<path id="Vector" d="M21.2297 26.4064C20.8445 26.6146 20.7402 27.1251 21.0215 27.4896L21.2195 27.7605L25.3445 27.7917C29.3652 27.8126 29.4797 27.8126 29.6882 27.6042C30.0007 27.2917 29.9695 26.7396 29.6257 26.4689C29.3547 26.2605 29.2402 26.2501 25.4277 26.2501C22.209 26.2605 21.459 26.2814 21.2297 26.4064Z" fill-rule="nonzero" fill="#FFFFFF"/>
			<path id="Vector" d="M38.7507 26.3124C35.6465 26.6874 33.0632 27.6354 30.8027 29.2395C29.709 30.0104 27.9277 31.7916 27.157 32.8854C25.8445 34.7291 24.8027 37.2186 24.4172 39.427C24.1465 40.9686 24.1672 43.4479 24.459 44.9686C25.5945 50.7186 29.6152 55.302 35.1257 57.1249C37.2922 57.8333 40.0945 58.0833 42.209 57.7395L42.5945 57.6874L42.6257 60.3436L42.657 62.9999L42.9695 63.4583C43.3445 63.9791 43.834 64.3333 44.386 64.4791C44.6465 64.552 48.261 64.5729 54.8652 64.5624C66.0527 64.5311 65.1882 64.5833 65.9277 63.8436C66.657 63.1145 66.6152 63.7395 66.6465 54.7604C66.6672 46.677 66.6672 46.6666 66.4485 46.1458C66.209 45.5833 65.6882 45.0624 65.1465 44.8333C64.8652 44.7186 63.8652 44.6874 60.209 44.6874L55.6152 44.6874L55.6985 43.9791C55.834 42.8229 55.7715 40.552 55.5735 39.427C54.834 35.1249 52.2297 31.177 48.5945 28.8333C46.8965 27.7291 44.6257 26.8436 42.709 26.5208C41.7195 26.3436 39.4382 26.2291 38.7507 26.3124ZM42.5527 28.0729C47.5527 28.9479 51.8965 32.7186 53.5215 37.6145C54.0422 39.2083 54.209 40.3333 54.1985 42.2395C54.1882 43.1561 54.136 44.0729 54.0945 44.2708L54.0007 44.6354L53.1257 44.6354C52.5945 44.6354 52.2507 44.5936 52.261 44.5311C52.6152 42.2708 52.4485 40.0104 51.761 38.0104C51.2507 36.5208 50.0945 34.552 49.6152 34.3645C49.282 34.2395 48.8652 34.427 48.6465 34.8229C48.4695 35.1458 48.3965 34.9791 49.3547 36.5416C49.9485 37.5104 50.4277 38.7395 50.6777 39.9583C50.886 40.9583 50.9172 42.8854 50.7402 43.927L50.6047 44.6874L47.5215 44.6874C44.1152 44.6874 43.9485 44.7186 43.3027 45.3749C42.6672 46.0208 42.657 46.0208 42.6047 49.4791L42.5527 52.6561L42.032 52.7916C41.2507 52.9999 38.8757 52.9791 37.8757 52.7708C36.6465 52.4999 35.4172 52.0208 34.459 51.4374C33.0422 50.5729 33.032 50.5729 32.7195 50.7395C32.3445 50.9479 32.157 51.3645 32.282 51.6979C32.511 52.302 35.1047 53.677 36.8027 54.1145C38.334 54.4999 39.761 54.6249 41.1465 54.4791C41.7922 54.4166 42.3652 54.3541 42.4382 54.3436C42.5735 54.3229 42.657 55.927 42.5215 56.0624C42.3235 56.2604 40.032 56.3958 38.7715 56.2708C32.2922 55.6354 27.2402 51.0416 25.9797 44.6249C25.6985 43.2395 25.7297 40.7083 26.032 39.2708C27.1047 34.1979 30.7402 30.1354 35.6047 28.552C36.459 28.2708 37.6777 28.0208 38.8547 27.8749C39.511 27.7916 41.5945 27.9061 42.5527 28.0729ZM64.8445 46.5104C65.0632 46.7186 65.1047 46.8645 65.1047 47.3958L65.1047 48.0208L54.636 48.0208L44.1672 48.0208L44.1672 47.3749C44.1672 46.8541 44.209 46.6874 44.3965 46.4895L44.6152 46.2499L54.6047 46.2499L64.5945 46.2499L64.8445 46.5104ZM65.1047 55.9999L65.1047 62.4166L64.8027 62.7186L64.5007 63.0208L54.584 63.0208L44.6777 63.0208L44.4277 62.7604L44.1672 62.5104L44.1672 56.0416L44.1672 49.5833L54.636 49.5833L65.1047 49.5833L65.1047 55.9999Z" fill-rule="nonzero" fill="#FFFFFF"/>
			<path id="Vector" d="M38.7295 29.6874C34.7085 30.1458 31.2295 32.3958 29.219 35.8333C27.1252 39.427 26.9897 43.8124 28.8545 47.552C29.8752 49.604 30.396 50.1353 31.0107 49.7395C31.146 49.6458 31.3127 49.4583 31.3752 49.3228C31.5002 49.0415 31.469 48.9686 30.646 47.6249C29.6252 45.9478 29.1357 44.1458 29.146 42.0311C29.146 40.6249 29.292 39.729 29.6982 38.5311C30.9585 34.8436 34.271 32.0208 38.1252 31.3436C39.1772 31.1665 41.1147 31.1874 42.1252 31.4061C43.3335 31.6561 44.5732 32.1353 45.542 32.729C47.1045 33.6874 46.9377 33.6145 47.2607 33.4374C47.6565 33.2186 47.844 32.802 47.719 32.4686C47.521 31.9686 45.521 30.8124 43.9272 30.2811C42.344 29.7499 40.2815 29.5103 38.7295 29.6874Z" fill-rule="nonzero" fill="#FFFFFF"/>
			<path id="Vector" d="M39.74 33.0209C39.3337 33.1771 39.2192 33.4375 39.2297 34.1979C39.2297 34.8229 39.261 34.9479 39.4692 35.1146C39.6047 35.2291 39.8442 35.3125 40.0005 35.3125C40.1567 35.3125 40.3962 35.2291 40.5317 35.1146C40.74 34.9479 40.7712 34.8229 40.7712 34.1875C40.7817 33.5729 40.74 33.4062 40.5735 33.2396C40.313 32.9896 40.011 32.9062 39.74 33.0209Z" fill-rule="nonzero" fill="#FFFFFF"/>
			<path id="Vector" d="M34.7393 36.354C34.4163 36.479 34.2393 36.7499 34.2393 37.0936C34.2393 37.3645 34.4998 37.677 36.031 39.2083C37.7185 40.8958 37.8225 41.0311 37.708 41.2499C37.4998 41.6353 37.5518 42.6458 37.8123 43.177C38.6143 44.8228 41.0205 44.979 41.9998 43.4374L42.3018 42.9686L45.4685 42.9165C48.5623 42.8645 48.6455 42.854 48.8643 42.6353C49.1455 42.354 49.1663 41.854 48.906 41.5624C48.7288 41.3645 48.5935 41.354 45.5518 41.354L42.3955 41.354L42.0725 40.8333C41.6143 40.0833 40.906 39.6874 40.0205 39.6874C39.656 39.6874 39.26 39.7395 39.1455 39.802C38.9475 39.9061 38.7498 39.7395 37.1455 38.1458C36.1663 37.177 35.2705 36.354 35.156 36.3228C35.0413 36.2915 34.8538 36.302 34.7393 36.354ZM40.5935 41.479C41.2288 42.0728 40.5413 43.2186 39.7185 42.9061C39.3435 42.7708 39.1768 42.5103 39.1663 42.0936C39.1663 41.3436 40.0413 40.9583 40.5935 41.479Z" fill-rule="nonzero" fill="#FFFFFF"/>
			<path id="Vector" d="M31.0935 41.5625C30.8333 41.8542 30.854 42.3542 31.1353 42.6355C31.3228 42.8334 31.479 42.8646 32.0935 42.8646C32.7395 42.8646 32.854 42.8334 33.031 42.6146C33.2915 42.3021 33.281 41.823 33.0208 41.5625C32.7185 41.2605 31.3645 41.2605 31.0935 41.5625Z" fill-rule="nonzero" fill="#FFFFFF"/>
			<path id="Vector" d="M39.4697 49.052C39.2612 49.2188 39.23 49.3438 39.23 50C39.2197 50.6979 39.2405 50.7604 39.5112 51C39.8655 51.302 40.0947 51.3125 40.4487 51.0416C40.7822 50.7812 40.9072 50.1145 40.7405 49.5C40.5635 48.8541 39.9697 48.6458 39.4697 49.052Z" fill-rule="nonzero" fill="#FFFFFF"/>
			<path id="Vector" d="M47.8123 52.3959C47.4998 52.7084 47.531 53.2604 47.8748 53.5312C48.1455 53.75 48.2393 53.75 54.5518 53.75C59.958 53.75 60.9893 53.7291 61.2393 53.5938C61.7185 53.3541 61.8018 52.9062 61.4478 52.4584L61.2393 52.1875L54.6248 52.1875C48.156 52.1875 48.0205 52.1875 47.8123 52.3959Z" fill-rule="nonzero" fill="#FFFFFF"/>
			<path id="Vector" d="M50.3328 55.7291C49.9995 56.0416 50.0203 56.5834 50.385 56.875C50.6558 57.0834 50.7288 57.0938 54.6975 57.0625C59.1453 57.0312 58.989 57.0521 59.1245 56.3854C59.1765 56.1146 59.135 56 58.9265 55.7916L58.6558 55.5209L54.6038 55.5209C50.6765 55.5209 50.5515 55.5312 50.3328 55.7291Z" fill-rule="nonzero" fill="#FFFFFF"/>
			<path id="Vector" d="M47.8325 59.0939C47.5095 59.4376 47.5305 59.9271 47.8743 60.198C48.145 60.4167 48.2388 60.4167 54.6555 60.4167L61.1555 60.4167L61.4055 60.1564C61.5513 60.0209 61.6658 59.7814 61.6658 59.6355C61.6658 59.4896 61.5513 59.2501 61.4055 59.1146L61.1555 58.8542L54.6033 58.8542L48.0513 58.8542L47.8325 59.0939Z" fill-rule="nonzero" fill="#FFFFFF"/>
			<path id="Vector" d="M18.8022 29.698C18.292 29.9896 18.1982 30.4271 18.5522 30.875L18.7607 31.1459L22.4585 31.1459C26.0107 31.1459 26.1565 31.1355 26.3545 30.9375C26.6147 30.6771 26.6252 30.198 26.3647 29.8855L26.167 29.6355L22.5835 29.6146C20.1045 29.5938 18.9482 29.625 18.8022 29.698Z" fill-rule="nonzero" fill="#FFFFFF"/>
			<path id="Vector" d="M54.7188 30.5208C54.2605 30.7083 54.125 31.4166 54.4792 31.7708C54.677 31.9688 54.823 31.9791 56.7083 31.9791L58.7395 31.9791L58.948 31.7083C59.073 31.552 59.1667 31.3645 59.1667 31.2916C59.1667 31.0208 58.927 30.6458 58.677 30.5312C58.375 30.3958 55.0625 30.3854 54.7188 30.5208Z" fill-rule="nonzero" fill="#FFFFFF"/>
			<path id="Vector" d="M56.9272 33.8541C56.4167 34.0521 56.2605 34.7084 56.6147 35.1041C56.7815 35.2812 56.9377 35.3125 57.771 35.3125C58.6877 35.3125 58.7502 35.3021 58.948 35.0416C59.073 34.8854 59.1667 34.6979 59.1667 34.625C59.1667 34.3229 58.9065 33.9584 58.6147 33.8541C58.2502 33.7291 57.2292 33.7291 56.9272 33.8541Z" fill-rule="nonzero" fill="#FFFFFF"/>
			<path id="Vector" d="M18.1763 43.1666C17.6973 43.375 17.1973 43.8334 16.9473 44.3125C16.718 44.7396 16.718 44.7396 16.6868 51.9166C16.6555 60.0104 16.6348 59.7188 17.4263 60.5C18.2285 61.2916 17.645 61.25 28.2285 61.25C37.6348 61.25 37.6763 61.25 37.9575 61.0312C38.3013 60.7604 38.3325 60.2084 38.02 59.8959C37.8118 59.6875 37.6763 59.6875 28.3223 59.6875L18.8325 59.6875L18.5305 59.3854L18.2285 59.0834L18.2285 53.5L18.2285 47.9271L20.5305 47.8959C22.8013 47.8646 22.8325 47.8646 23.0305 47.6146C23.291 47.3021 23.2805 46.8229 23.02 46.5625C22.8223 46.3646 22.6763 46.3541 20.5098 46.3541L18.2075 46.3541L18.2493 45.6666C18.3118 44.6354 18.416 44.5834 20.1555 44.5834C21.593 44.5834 22.1243 44.4791 22.291 44.1666C22.4575 43.8541 22.416 43.4584 22.1868 43.2291C21.9993 43.0416 21.843 43.0209 20.2388 43.0209C19.0305 43.0312 18.395 43.0729 18.1763 43.1666Z" fill-rule="nonzero" fill="#FFFFFF"/>
			<path id="Vector" d="M21.052 51.625C20.802 51.9375 20.781 52.0729 20.9478 52.4375C21.1458 52.8541 21.5103 52.9375 23.0728 52.8958C24.427 52.8645 24.5103 52.8541 24.6978 52.6145C24.9685 52.2812 24.9478 51.8541 24.656 51.5833C24.427 51.3645 24.3123 51.3541 22.8435 51.3541L21.2603 51.3541L21.052 51.625Z" fill-rule="nonzero" fill="#FFFFFF"/>
			<path id="Vector" d="M21.0728 54.9583C20.8645 55.1666 20.8228 55.2812 20.8748 55.552C21.0103 56.1979 20.979 56.1979 24.0623 56.2291L26.8748 56.2604L27.1353 56C27.4685 55.6666 27.479 55.2188 27.156 54.9166C26.9165 54.6979 26.8435 54.6875 24.1248 54.6875L21.3435 54.6875L21.0728 54.9583Z" fill-rule="nonzero" fill="#FFFFFF"/>
		</g>
	</g>
</svg>
