<svg width="80.000000" height="80.000000" viewBox="0 0 80 80" fill="none" xmlns="http://www.w3.org/2000/svg" xmlns:xlink="http://www.w3.org/1999/xlink">
	<desc>
			Created with Pixso.
	</desc>
	<defs>
		<clipPath id="clip4_40">
			<rect id="time-management 5" rx="30.000000" width="80.000000" height="80.000000" fill="white"/>
		</clipPath>
	</defs>
	<rect id="time-management 5" rx="30.000000" width="80.000000" height="80.000000" fill="#FFC65D"/>
	<g clip-path="url(#clip4_40)">
		<path id="Vector" d="M29.2188 13.522C28.271 13.8032 27.5938 14.1886 26.9478 14.8345C26.2812 15.5011 25.896 16.1261 25.6147 17.022C25.375 17.8032 25.3335 20.6573 25.5625 21.5011C25.7603 22.2407 26.1978 23.0636 26.6772 23.5845C26.9897 23.9282 27.0835 24.1052 27.0835 24.397L27.0835 24.7615L23.9165 25.824C22.0625 26.4386 20.6147 26.9802 20.4062 27.1365C19.9272 27.4907 19.5 28.147 19.4272 28.6677C19.3335 29.3345 19.4165 43.7615 19.521 44.022L19.604 44.2615L17.2812 44.2615C16 44.2615 14.7812 44.3136 14.5625 44.3657C14.0938 44.5011 13.4688 45.1677 13.3853 45.6365C13.354 45.824 13.3335 47.6782 13.354 49.7511C13.3853 53.3865 13.396 53.5323 13.604 53.8136C13.7188 53.9698 13.979 54.2095 14.1665 54.3345C14.5103 54.574 14.5103 54.574 19.0728 54.574L23.646 54.574L23.646 59.7302L23.646 64.8865L20.2085 64.8865L16.771 64.8865L16.771 65.772L16.771 66.6573L40 66.6573L63.229 66.6573L63.229 65.772L63.229 64.8865L60.8125 64.8865L58.3853 64.8761L58.7915 64.647C59.0103 64.522 59.5938 64.1365 60.0835 63.7927C66.1353 59.5427 68.3228 51.5845 65.2812 44.8345C63.8335 41.6157 61.2397 38.9177 58.0728 37.3448C57.4478 37.0323 56.6562 36.699 56.3335 36.5948C56 36.4907 55.729 36.3761 55.729 36.3345C55.729 36.3032 55.854 36.0427 56.0103 35.7615C56.25 35.3345 56.3022 35.1261 56.3022 34.522C56.2915 33.6261 56.0312 33.0011 55.4272 32.4073C55.0312 32.022 54.2397 31.6886 46.7603 28.699L38.5312 25.4073L36.25 25.022C34 24.6573 33.9585 24.6365 33.9585 24.397C33.9585 24.2511 34.1665 23.897 34.4478 23.5532C35.4585 22.3136 35.7915 21.0636 35.6978 18.8448C35.625 16.9386 35.229 15.9386 34.1353 14.8552C32.8022 13.5323 30.9165 13.022 29.2188 13.522ZM32 15.3865C32.6772 15.7198 33.3022 16.3657 33.625 17.0532C33.8853 17.5948 33.9062 17.772 33.9375 19.2095C33.9688 20.6261 33.9478 20.8448 33.7397 21.397C33.125 23.0427 31.2603 23.9802 29.5835 23.4907C28.4375 23.1573 27.4478 22.0845 27.1978 20.9073C26.9478 19.7823 27.0938 17.6573 27.4688 16.9282C27.8438 16.2095 28.75 15.4595 29.5835 15.1886C30.104 15.022 31.479 15.1365 32 15.3865ZM29.9478 25.2927C30.5312 25.3761 31.3438 25.3136 32.0103 25.147C32.2915 25.074 32.2915 25.074 32.2915 25.5845L32.2915 26.0948L35.1772 26.5845L38.0625 27.074L46.0312 30.2511C54.8228 33.7615 54.5835 33.6365 54.5835 34.5115C54.5835 34.8865 54.521 35.0323 54.271 35.2823C53.9272 35.6365 53.4272 35.7615 52.9688 35.6261C52.7915 35.574 49.646 34.4073 45.9585 33.022L39.271 30.5115L37.5 30.5115L35.729 30.5115L35.729 47.699L35.729 64.8865L33.5415 64.8865L31.354 64.8865L31.354 53.324L31.354 41.7615L30.521 41.7615L29.6875 41.7615L29.6875 53.324L29.6875 64.8865L27.5522 64.8865L25.4165 64.8865L25.4165 59.7302L25.4165 54.574L25.6665 54.574C25.9688 54.574 26.521 54.2095 26.8125 53.8136C27.021 53.5323 27.0312 53.3865 27.0625 49.699C27.0835 47.1677 27.0625 45.7511 26.979 45.4907C26.8335 44.9802 26.3438 44.5011 25.8228 44.3657L25.4165 44.2511L25.4165 37.3865L25.4165 30.5115L24.5312 30.5115L23.646 30.5115L23.646 36.9282C23.646 42.6782 23.625 43.3761 23.479 43.6365C22.9585 44.5115 21.6562 44.4386 21.2085 43.5011C21.0522 43.1573 21.0415 42.5115 21.0625 35.9907C21.0938 28.9802 21.0938 28.8448 21.3022 28.6365C21.4375 28.5115 22.9272 27.9595 25.1562 27.2095L28.8022 25.9802L28.8335 25.522C28.8647 25.1157 28.8853 25.0845 29.0938 25.147C29.2188 25.1782 29.604 25.2511 29.9478 25.2927ZM43.8335 34.074C48.229 35.7198 48.625 35.8865 48.3125 35.9595C46.9272 36.324 45.9688 36.6157 45.2188 36.9177C42.354 38.0845 39.75 40.3345 37.9478 43.2095L37.396 44.0845L37.396 38.1886L37.396 32.2823L38.2085 32.2823C39 32.272 39.0938 32.3032 43.8335 34.074ZM52.4272 37.4907C57.7915 38.0115 62.1665 41.3865 64.104 46.5011C64.6875 48.0115 64.8335 48.9698 64.8438 51.0845C64.8438 52.6157 64.8022 53.2615 64.6562 53.949C63.4897 59.3448 59.354 63.4802 53.9585 64.647C53.271 64.7927 52.625 64.8345 51.0938 64.8345C49.375 64.824 48.9897 64.7927 48.125 64.5845C45.625 63.9595 43.479 62.8032 41.729 61.1365C36.104 55.772 36 46.9073 41.5 41.449C44.0522 38.9073 47.3335 37.522 51.0415 37.4073C51.2397 37.397 51.8647 37.4386 52.4272 37.4907ZM23.0728 47.0845C21.0625 48.4282 20.854 48.5323 20.2085 48.5323C19.5625 48.5323 19.354 48.4282 17.3438 47.0845L15.7812 46.0323L20.2085 46.0323L24.6353 46.0323L23.0728 47.0845ZM16.7603 48.772C18.7603 50.1052 19.104 50.2511 20.2603 50.2511C21.3853 50.2407 21.5728 50.1677 23.6875 48.7511C24.4688 48.2198 25.1772 47.7615 25.2603 47.7302C25.396 47.6886 25.4165 48.0532 25.4165 50.2927L25.4165 52.9073L20.2603 52.9073L15.104 52.9073L15.104 50.2927C15.104 48.2407 15.1353 47.699 15.2397 47.7615C15.3022 47.8032 15.9897 48.2615 16.7603 48.772ZM37.8125 58.9177C38.9478 60.949 40.896 62.949 43.0728 64.3136L43.9897 64.8865L40.6978 64.8865L37.396 64.8865L37.396 61.6052C37.396 59.8032 37.4165 58.324 37.4375 58.324C37.4585 58.324 37.6353 58.5948 37.8125 58.9177Z" fill-rule="nonzero" fill="#FFFFFF"/>
		<path id="Vector" d="M49.6357 39.2303C47.646 39.4803 45.3022 40.4803 43.7397 41.7303L43.3545 42.0323L43.6255 42.3345C43.771 42.5116 44.021 42.8032 44.1772 42.9803L44.4692 43.3241L45.2295 42.772C45.6567 42.4803 46.3755 42.0532 46.8335 41.8345C47.688 41.4386 49.4692 40.9282 50.0107 40.9282L50.313 40.9282L50.313 42.1782L50.313 43.4282L51.1982 43.4282L52.0835 43.4282L52.0835 42.1678L52.0835 40.9073L52.667 40.9803C56.146 41.4073 59.438 44.0323 60.7817 47.4386C61.0317 48.0636 61.4482 49.7823 61.4585 50.1678C61.4585 50.272 61.1357 50.3032 60.2085 50.3032L58.9585 50.3032L58.9585 51.1886L58.9585 52.0741L60.2192 52.0741L61.4692 52.0741L61.396 52.5636C61.146 54.3136 60.3647 56.1991 59.3857 57.4282C59.2085 57.647 59.063 57.8657 59.063 57.897C59.0732 57.9907 60.2085 58.897 60.313 58.897C60.4897 58.897 61.3335 57.6782 61.8232 56.7511C64.2607 52.0428 63.4272 46.4595 59.6982 42.7095C57.9067 40.9073 55.6982 39.7616 53.188 39.3136C52.3545 39.1678 50.4482 39.1261 49.6357 39.2303Z" fill-rule="nonzero" fill="#FFFFFF"/>
		<path id="Vector" d="M41.8027 43.6365C40.751 44.9282 39.855 46.8136 39.4175 48.6053C39.1885 49.5845 39.105 51.7407 39.2612 52.8032C39.6572 55.4595 40.834 57.8241 42.7197 59.6886C46.4697 63.4178 52.0527 64.2511 56.7612 61.8136C57.6885 61.3241 58.9072 60.4803 58.9072 60.3032C58.9072 60.1991 58.001 59.0636 57.9072 59.0532C57.876 59.0532 57.6572 59.1991 57.4385 59.3761C56.209 60.3553 54.3237 61.1366 52.584 61.3866L52.084 61.4595L52.084 60.2095L52.084 58.9491L51.1987 58.9491L50.3135 58.9491L50.3135 60.1991C50.3135 61.1261 50.2822 61.4491 50.1885 61.4491C49.7925 61.4386 48.0737 61.022 47.4487 60.772C45.0527 59.8241 42.8965 57.7928 41.8237 55.4803C41.4175 54.6053 41.0947 53.5011 40.9902 52.6573L40.9175 52.0741L42.1777 52.0741L43.4385 52.0741L43.4385 51.1886L43.4385 50.3032L42.1885 50.3032L40.9385 50.3032L40.9385 50.0011C40.9385 49.4595 41.4487 47.6782 41.8447 46.824C42.0635 46.3657 42.4902 45.647 42.7822 45.2198L43.334 44.4595L42.9902 44.1677C42.8135 44.0011 42.5215 43.7511 42.3447 43.6157L42.0322 43.3552L41.8027 43.6365Z" fill-rule="nonzero" fill="#FFFFFF"/>
		<path id="Vector" d="M50.3125 48.6365L50.3125 52.074L52.4478 52.074L54.5835 52.074L54.5835 51.1886L54.5835 50.3031L53.3335 50.3031L52.0835 50.3031L52.0835 47.7511L52.0835 45.199L51.1978 45.199L50.3125 45.199L50.3125 48.6365Z" fill-rule="nonzero" fill="#FFFFFF"/>
		<path id="Vector" d="M13.3335 65.772L13.3335 66.6573L14.2188 66.6573L15.1147 66.6573L15.0835 65.7927L15.0522 64.9386L14.1982 64.9073L13.3335 64.8761L13.3335 65.772Z" fill-rule="nonzero" fill="#FFFFFF"/>
		<path id="Vector" d="M64.9688 64.9595C64.9272 64.9907 64.896 65.397 64.896 65.8448L64.896 66.6573L65.7812 66.6573L66.667 66.6573L66.667 65.772L66.667 64.8865L65.8545 64.8865C65.4062 64.8865 65 64.9177 64.9688 64.9595Z" fill-rule="nonzero" fill="#FFFFFF"/>
	</g>
</svg>
