<svg width="80.000000" height="80.000000" viewBox="0 0 80 80" fill="none" xmlns="http://www.w3.org/2000/svg" xmlns:xlink="http://www.w3.org/1999/xlink">
	<desc>
			Created with Pixso.
	</desc>
	<defs>
		<clipPath id="clip311_733">
			<rect id="time" width="53.333328" height="53.333328" transform="translate(13.333252 13.333252)" fill="white"/>
		</clipPath>
		<clipPath id="clip311_732">
			<rect id="time-management 1" rx="30.000000" width="80.000000" height="80.000000" fill="white"/>
		</clipPath>
	</defs>
	<rect id="time-management 1" rx="30.000000" width="80.000000" height="80.000000" fill="#29AAE3"/>
	<g clip-path="url(#clip311_732)">
		<g clip-path="url(#clip311_733)">
			<path id="Vector" d="M39.1562 13.5C38.4897 13.6979 37.6875 14.4375 37.396 15.125C37.1147 15.7812 37.0835 16.7395 37.323 17.3125L37.4897 17.7083L35.9272 19.2395C35.0625 20.0938 34.3125 20.802 34.2605 20.8125C34.2085 20.8333 33.9688 20.7812 33.7397 20.6875C33.125 20.4375 32.1355 20.4688 31.5105 20.7708C30.8647 21.0625 30.198 21.7812 29.948 22.427C29.7188 23.0312 29.771 24.1458 30.0522 24.7395C30.75 26.1875 32.5522 26.8125 34 26.1041C35.3542 25.4375 35.9897 23.8645 35.4792 22.427L35.323 21.9895L36.9375 20.4375L38.5522 18.8854L39.0938 19.0729C39.396 19.177 39.8438 19.2604 40.1042 19.2604C40.5417 19.2604 40.771 19.1979 41.625 18.8438L41.948 18.7188L46.2812 22.0416L50.625 25.3645L50.5417 25.7291C50.396 26.4479 50.4792 27.2708 50.7812 27.8645C51.2917 28.9166 52.2397 29.4791 53.4792 29.4791C55.4688 29.4688 56.875 27.4166 56.1667 25.5416L55.9688 25.0416L57.2917 23.677L58.6147 22.302L59.021 22.4479C59.25 22.5312 59.7292 22.5938 60.1042 22.5938C60.9792 22.6041 61.6772 22.2916 62.2605 21.625C63.948 19.7083 62.6147 16.7604 60.0522 16.7604C58.0417 16.7604 56.6355 18.6875 57.271 20.5729L57.4792 21.1875L56.1772 22.5729C55.4585 23.3333 54.8647 23.9583 54.8438 23.9583C54.8335 23.9583 54.646 23.8854 54.448 23.802C53.8438 23.552 52.7397 23.5938 52.1355 23.9062C51.8542 24.0416 51.5835 24.125 51.521 24.0938C51.4062 24.0208 47.3855 20.927 44.4897 18.6875C43.4688 17.9062 42.8855 17.375 42.9062 17.2812C42.9272 17.1979 42.9688 16.8438 43 16.4895C43.0625 15.5625 42.8125 14.875 42.146 14.2188C41.323 13.4062 40.2812 13.1458 39.1562 13.5ZM40.6772 15.0416C41.7085 15.4791 41.7085 17.052 40.6772 17.5416C39.7397 17.9895 38.7292 17.3438 38.7292 16.302C38.7292 15.75 38.9375 15.3854 39.4062 15.1041C39.8022 14.8541 40.1875 14.8438 40.6772 15.0416ZM60.875 18.552C61.4585 19.0104 61.625 19.7812 61.25 20.3854C60.698 21.302 59.271 21.2395 58.823 20.2812C58.6042 19.8333 58.6042 19.5833 58.7917 19.1145C59.1042 18.3854 60.2605 18.0729 60.875 18.552ZM33.7188 22.5416C34 22.8438 34.0625 23 34.0625 23.3854C34.0625 24.2708 33.5417 24.8229 32.698 24.8229C31.573 24.8229 30.9167 23.4479 31.6355 22.6041C32 22.1666 32.2397 22.0729 32.8542 22.125C33.2917 22.1562 33.4272 22.2188 33.7188 22.5416ZM54.2085 25.427C55.271 26.2604 54.771 27.9166 53.448 27.9166C52.6042 27.9166 52.0417 27.375 52.0417 26.5729C52.0417 25.7188 52.5625 25.2188 53.448 25.2083C53.7812 25.2083 54.0105 25.2708 54.2085 25.427Z" fill-rule="nonzero" fill="#FFFFFF"/>
			<path id="Vector" d="M37.7292 24.823C37.6042 24.8959 37.4167 25.073 37.3125 25.2084C37.1562 25.448 37.1355 25.9167 37.1042 30.6042C37.0833 34.8855 37.052 35.7396 36.9375 35.698C36.8542 35.6667 36.5938 35.5834 36.3542 35.5105C36.125 35.4375 35.8855 35.3021 35.8333 35.2084C35.6355 34.8438 35.073 34.6875 33.9688 34.6875L32.927 34.6875L32.7083 34.198L32.4895 33.7084L33.2188 32.9792C34.052 32.125 34.1667 31.9271 34.1667 31.3855C34.1667 30.823 33.6355 30.1146 32.4167 29.0521C31.448 28.198 30.8855 28.2812 29.6875 29.4375L28.9688 30.1355L28.4688 29.9271L27.9688 29.7292L27.9167 28.5312C27.8645 27.2396 27.7812 27.0312 27.25 26.7084C26.9792 26.5417 26.7083 26.5105 25.5208 26.5105C23.9375 26.5105 23.6458 26.6042 23.2605 27.1771C23.052 27.4896 23.0208 27.6562 23.0208 28.6355L23.0208 29.7396L22.573 29.9167C22.3333 30.0209 22.0938 30.1042 22.0417 30.1042C21.9895 30.1042 21.5833 29.7605 21.1458 29.3334C19.927 28.1459 19.4895 28.1562 18.125 29.4375C16.927 30.573 16.5625 31.2812 16.8855 31.9062C16.948 32.0312 17.3333 32.4688 17.7292 32.875L18.4583 33.6146L18.2708 34.1562L18.073 34.6875L16.9792 34.6875C16.0833 34.6875 15.823 34.7292 15.552 34.8959C14.9167 35.2812 14.8438 35.5105 14.8438 37.1355C14.8438 38.4167 14.875 38.6355 15.052 38.9584C15.3855 39.5312 15.8125 39.6875 17.0312 39.6875L18.0833 39.6875L18.2605 40.1771L18.4375 40.6562L17.7083 41.4062C16.698 42.4584 16.5417 42.9688 17.0312 43.6875C17.177 43.8959 17.2917 44.1146 17.2917 44.1562C17.2917 44.2084 17.1355 44.6667 16.9375 45.1667C15.8333 48.0417 15.6355 51.5938 16.3958 54.6146C17.9062 60.573 22.698 65.125 28.7292 66.3542C32.4167 67.1042 36.625 66.4062 39.7812 64.5209C41.5938 63.448 42.0105 62.9688 41.5938 62.4167C41.2292 61.9271 40.8542 61.9792 39.7605 62.6875C38.4792 63.5105 37.698 63.8959 36.427 64.323C34.6355 64.9167 33.802 65.0521 31.823 65.0521C29.8438 65.0521 29.0105 64.9167 27.2188 64.323C22.1875 62.6459 18.5208 58.2917 17.6458 52.9167C17.448 51.7188 17.5105 48.9896 17.7605 47.8646C17.9062 47.198 18.3958 45.5834 18.5105 45.3855C18.5417 45.3334 18.6667 45.3959 18.7917 45.5105C19.1145 45.8125 19.6145 45.948 20 45.8334C20.177 45.7812 20.3125 45.7605 20.3125 45.7812C20.3125 45.8021 20.177 46.2292 20.0105 46.7396C19.4792 48.323 19.3438 49.3125 19.4062 51.198C19.4688 53.2084 19.7395 54.375 20.5208 56.0105C22.6562 60.5 26.9583 63.2292 31.8542 63.2292C37.8958 63.2292 43.0105 58.9062 44.125 52.8646C44.375 51.4688 44.2812 49.0521 43.927 47.6771C43.3438 45.4688 42.2708 43.6042 40.6355 41.9688C40.0833 41.4167 39.2605 40.7188 38.8125 40.4167C38.1042 39.948 36.75 39.25 36.125 39.0312C35.9688 38.9792 35.9583 38.9167 36.0417 38.698C36.1042 38.5417 36.1458 38.1146 36.1458 37.75C36.1458 36.9584 36.0417 36.9792 37.4375 37.5625C39.1667 38.2917 40.7083 39.375 42.1458 40.8542C44.0625 42.8438 45.302 45.198 45.9062 48.0209C46.1667 49.2709 46.1667 52.3021 45.8958 53.5312C45.4583 55.5625 44.7708 57.1459 43.5938 58.9167C43.1458 59.5834 42.8125 60.1875 42.8125 60.3334C42.8125 60.6667 43.2188 61.0417 43.5833 61.0417C43.948 61.0417 44.3542 60.6355 45.0625 59.5625C46.4375 57.4792 47.2917 55.125 47.6562 52.3646L47.7188 51.875L56.2083 51.875L64.698 51.875L64.948 51.6146C65.2812 51.2917 65.2812 50.8959 64.948 50.573C64.7188 50.3438 64.6145 50.3125 63.8542 50.3125L63.0208 50.3125L63.0208 46.9792C63.0208 43.7812 63.0105 43.6355 62.8125 43.4375C62.5 43.125 61.948 43.1562 61.677 43.5C61.4688 43.7709 61.4583 43.8959 61.4583 47.0417L61.4583 50.3125L60.052 50.3125L58.6458 50.3125L58.6667 39.8646L58.698 29.4271L60.0833 29.3959L61.4583 29.3646L61.4583 34.9271C61.4583 40.3959 61.4583 40.5 61.677 40.7709C61.948 41.1146 62.5 41.1459 62.8125 40.8334C63.0208 40.625 63.0208 40.4896 63.0208 34.6562C63.0208 28.9271 63.0105 28.6875 62.8125 28.3646C62.5105 27.875 62.073 27.7917 59.802 27.8334C57.677 27.8646 57.5208 27.9062 57.2395 28.5C57.1042 28.7917 57.0833 30.2396 57.0833 39.573L57.0833 50.3125L56.7188 50.3125L56.3542 50.3125L56.3542 41.8959C56.3542 33.7188 56.3438 33.4792 56.1458 33.1562C56.0312 32.9688 55.8125 32.7812 55.6562 32.7396C55.5 32.6875 54.4375 32.6562 53.3125 32.6562C51.3958 32.6562 51.25 32.6667 50.9688 32.875C50.8125 32.9896 50.6145 33.2084 50.552 33.3438C50.448 33.5312 50.4167 35.5209 50.4167 41.948L50.4167 50.3125L50.052 50.3125L49.6875 50.3125L49.6875 39.7812C49.6875 32.2396 49.6562 29.198 49.573 29.0312C49.2812 28.4584 49.1875 28.4375 46.7708 28.4375C44.8645 28.4375 44.4895 28.4584 44.2812 28.6042C43.7605 28.9792 43.75 29.073 43.75 34.8646L43.7395 40.2605L43.3855 39.8438L43.0208 39.4271L43.0208 35.7292C43.0208 31.5417 43.0208 31.5625 42.302 31.5625C42.0312 31.5625 41.8438 31.6355 41.7083 31.7812C41.5208 31.9896 41.5105 32.2188 41.4792 35.0105C41.4583 36.6667 41.427 38.0209 41.4062 38.0209C41.375 38.0209 41.1355 37.8646 40.8645 37.6667C40.5833 37.4688 39.9895 37.1042 39.5312 36.8542L38.698 36.3959L38.6667 31.323L38.6458 26.25L40.0417 26.25L41.4375 26.25L41.4792 27.5938C41.5105 28.7396 41.5417 28.9688 41.7083 29.1562C41.9688 29.4375 42.5312 29.448 42.8125 29.1667C43 28.9792 43.0208 28.823 43.0208 27.1771L43.0208 25.3959L42.6667 25.0417L42.3125 24.6875L40.1458 24.6875C38.6042 24.698 37.8958 24.7292 37.7292 24.823ZM26.323 28.698C26.3855 30.0521 26.4583 30.4167 26.7917 30.7917C26.9583 30.9792 27.1458 31.1459 27.2083 31.1459C27.2605 31.1459 27.625 31.2812 28.0208 31.4584C29.2083 31.9792 29.5833 31.8646 30.7812 30.6355L31.2917 30.1042L31.8958 30.698C32.2292 31.0312 32.5 31.3438 32.5 31.4062C32.5 31.4688 32.1667 31.8438 31.7708 32.2396C31 33 30.8125 33.375 30.948 33.9062C31.1145 34.573 31.5938 35.5834 31.8855 35.8855C32.1875 36.1875 32.2188 36.198 33.3855 36.2292L34.5833 36.2709L34.5833 37.198L34.5833 38.125L33.4688 38.125C31.9688 38.125 31.8333 38.2084 31.3333 39.4375C30.7083 40.9584 30.7292 41.0521 31.7188 42.073C32.1458 42.5209 32.5 42.9167 32.5 42.9688C32.5 43.0209 32.2292 43.3334 31.9062 43.6667L31.3125 44.2709L30.5208 43.4896C29.698 42.698 29.4062 42.5417 28.823 42.6355C28.4583 42.6875 27.2395 43.1875 26.8855 43.4375C26.5417 43.6771 26.3645 44.323 26.3542 45.3334L26.3542 46.2292L25.927 46.3021C25.698 46.3438 25.302 46.3438 25.052 46.3125L24.6042 46.2396L24.5625 45.1042C24.5417 44.1562 24.5 43.9271 24.3125 43.6771C24.0312 43.3125 22.4167 42.6042 21.8438 42.6042C21.4792 42.6042 21.3542 42.6875 20.625 43.3959C19.677 44.3125 19.625 44.323 18.9062 43.5209L18.4375 43L19.2083 42.1771C20.2395 41.1042 20.2708 40.9375 19.7188 39.6042C19.1667 38.2605 19.073 38.1875 17.573 38.125L16.4062 38.073L16.375 37.1562L16.3438 36.25L17.4688 36.25C19.052 36.25 19.1042 36.2188 19.7812 34.6146C20.2812 33.448 20.2188 33.2084 19.1355 32.1042L18.3855 31.3438L19.0417 30.7084L19.698 30.073L20.5105 30.875C21.552 31.9167 21.7917 31.9584 23.1667 31.3855C24.427 30.8542 24.5208 30.7084 24.5625 29.3438C24.5833 28.7605 24.6145 28.2188 24.6355 28.1459C24.677 28.0521 24.9062 28.0209 25.4895 28.0417L26.302 28.073L26.323 28.698ZM48.125 40.1562C48.125 49.8334 48.1145 50.3125 47.9375 50.3125C47.7812 50.3125 47.7395 50.1459 47.625 49.1355C47.3958 46.9688 46.8438 45.1667 45.823 43.25L45.3125 42.2917L45.3125 36.1459L45.3125 30L46.7188 30L48.125 30L48.125 40.1562ZM54.7917 42.2396L54.7917 50.3125L53.3855 50.3125L51.9792 50.3125L51.9792 42.3125C51.9792 37.9062 52.0105 34.2709 52.052 34.2396C52.0833 34.198 52.7188 34.1667 53.4583 34.1667L54.7917 34.1667L54.7917 42.2396ZM34.875 40.2709C35.3542 40.4062 35.9167 40.6146 36.1355 40.7188C36.4895 40.9062 36.5208 40.9584 36.4792 41.2709C36.3958 42 37.2605 42.4271 37.802 41.9375C38.0105 41.75 38.0312 41.75 38.573 42.1771C39.177 42.6355 40.0833 43.5625 40.5625 44.1875L40.8542 44.573L40.6355 44.8542C40.3438 45.2292 40.3645 45.573 40.6875 45.8959C40.9062 46.125 41.0105 46.1562 41.3125 46.0938C41.6562 46.0312 41.677 46.0521 41.875 46.4792C42.177 47.1562 42.573 48.625 42.6562 49.3438L42.7292 50L41.5208 50C40.448 50 40.2917 50.0209 40.1042 50.2084C39.7917 50.5209 39.823 51.073 40.1667 51.3438C40.4062 51.5312 40.5938 51.5625 41.573 51.5625C42.677 51.5625 42.7083 51.573 42.7083 51.7917C42.7083 52.2709 42.3125 53.9271 42.0105 54.6875L41.7188 55.4688L41.3125 55.4375C40.5625 55.3646 40.1562 56.1042 40.625 56.698L40.8333 56.9584L40.4375 57.4688C39.927 58.1146 39.1458 58.8855 38.5 59.3959L37.9895 59.8021L37.7605 59.5834C37.2292 59.0938 36.375 59.5312 36.4895 60.25C36.5417 60.5938 36.5312 60.6042 35.948 60.8646C35.323 61.1355 33.927 61.5 33.1042 61.6146L32.6042 61.6771L32.6042 60.4896C32.6042 59.448 32.5833 59.2812 32.3958 59.0834C32.1145 58.7812 31.5312 58.7812 31.25 59.0625C31.0625 59.25 31.0417 59.4062 31.0417 60.4688C31.0417 61.5 31.0208 61.6667 30.875 61.6667C30.4375 61.6667 28.552 61.2084 27.8855 60.948C27.1458 60.6459 27.1355 60.6459 27.1667 60.2917C27.2395 59.5417 26.3645 59.0521 25.8855 59.5834C25.7812 59.698 25.6458 59.75 25.5625 59.7084C25.1145 59.4584 23.948 58.375 23.427 57.7292L22.8125 56.9584L23.0208 56.698C23.2917 56.3542 23.2812 56.0417 23.0105 55.6875C22.823 55.448 22.7188 55.4062 22.3542 55.4375L21.927 55.4688L21.625 54.6875C21.3333 53.9271 20.9375 52.2709 20.9375 51.7917C20.9375 51.573 20.9688 51.5625 22.073 51.5625C23.052 51.5625 23.2395 51.5312 23.4792 51.3438C23.823 51.073 23.8542 50.5209 23.5417 50.2084C23.3542 50.0209 23.198 50 22.125 50L20.9062 50L20.9792 49.3959C21.0938 48.4271 21.4583 47.198 21.9375 46.1667C22.4062 45.1459 22.7605 44.5834 22.927 44.5834C22.9792 44.5834 23.0208 45.0834 23.0208 45.698C23.0208 46.948 23.1667 47.3542 23.7188 47.6355C24.125 47.8438 25.427 47.9375 26.4062 47.823C27.1667 47.7292 27.2605 47.698 27.573 47.3542L27.9167 46.9792L27.9167 45.8438C27.9167 44.6042 27.9167 44.6146 28.6042 44.3438L29.0312 44.1771L29.802 44.9584C31.0208 46.1875 31.4895 46.1875 32.7812 44.9688C33.8542 43.9584 34.1667 43.5105 34.1667 43C34.1667 42.448 34.052 42.2605 33.2083 41.3959L32.4895 40.6562L32.677 40.2709L32.8645 39.875L33.4375 39.948C33.75 39.9896 34.3958 40.1355 34.875 40.2709Z" fill-rule="nonzero" fill="#FFFFFF"/>
			<path id="Vector" d="M24.1348 32.1355C21.843 32.7605 20.3013 34.7812 20.3013 37.1562C20.2805 41.7812 25.8223 44.125 29.1138 40.8959C30.218 39.8125 30.8118 38.2812 30.6868 36.8021C30.5098 34.5625 28.9473 32.698 26.8013 32.1355C26.0825 31.948 24.8223 31.948 24.1348 32.1355ZM26.9993 33.8438C28.1763 34.4062 28.9993 35.5625 29.1243 36.8334C29.2598 38.0834 28.5825 39.5 27.541 40.198C26.5098 40.875 25.1035 41.0209 24.041 40.5417C23.395 40.2605 22.541 39.4584 22.2285 38.8438C21.4368 37.2812 21.9368 35.1875 23.3223 34.2292C24.0825 33.698 24.6555 33.5312 25.6243 33.573C26.27 33.6042 26.645 33.6771 26.9993 33.8438Z" fill-rule="nonzero" fill="#FFFFFF"/>
			<path id="Vector" d="M24.5315 35.0625C23.2917 35.7396 22.844 37.0417 23.4377 38.2292C24.4897 40.3021 27.573 39.6562 27.7815 37.323C27.823 36.8021 27.7917 36.6459 27.5315 36.1459C27.0835 35.3021 26.5417 34.9584 25.594 34.9271C25.0522 34.9062 24.7605 34.9375 24.5315 35.0625ZM26.0417 36.6875C26.646 37.3438 25.7085 38.3125 25.021 37.7292C24.6877 37.4584 24.6355 37.073 24.896 36.7396C25.1877 36.375 25.7292 36.3542 26.0417 36.6875Z" fill-rule="nonzero" fill="#FFFFFF"/>
			<path id="Vector" d="M31.2812 50.2292C30.823 50.7396 27.8125 55.9792 27.8125 56.2709C27.8125 56.6771 28.1458 56.9792 28.5833 56.9792C29.0417 56.9792 29.0833 56.9271 30.7292 54.1355C31.427 52.948 32.0417 51.948 32.0938 51.9167C32.1458 51.8959 32.9167 52.3021 33.823 52.823C35.625 53.8751 36.0105 53.9896 36.3645 53.5521C36.625 53.2292 36.6145 52.8855 36.3333 52.5626C35.9688 52.1771 32.125 50.0001 31.7812 50.0001C31.6145 50.0001 31.4062 50.1042 31.2812 50.2292Z" fill-rule="nonzero" fill="#FFFFFF"/>
			<path id="Vector" d="M49.948 53.698C49.4688 54.1667 49.573 54.396 50.8022 55.6355L51.9167 56.7709L50.8022 57.9064C49.573 59.1459 49.448 59.4271 49.9272 59.8751C50.4375 60.3542 50.6562 60.2292 52.271 58.6146C54.2292 56.6564 54.2292 56.8855 52.2605 54.9271C50.6355 53.3022 50.4375 53.198 49.948 53.698Z" fill-rule="nonzero" fill="#FFFFFF"/>
			<path id="Vector" d="M55.3643 53.698C54.885 54.1667 54.9893 54.3959 56.2183 55.6459L57.333 56.7709L56.2705 57.8439C55.083 59.0314 54.937 59.3439 55.312 59.823C55.4683 60.0209 55.6245 60.1042 55.8745 60.1042C56.1663 60.1042 56.3955 59.9167 57.7495 58.5521C59.1768 57.1146 59.2913 56.9689 59.2288 56.698C59.187 56.5105 58.6143 55.8646 57.6663 54.9167C56.0413 53.3021 55.8538 53.198 55.3643 53.698Z" fill-rule="nonzero" fill="#FFFFFF"/>
			<path id="Vector" d="M60.9795 53.5626C60.6982 53.698 60.4897 54.1251 60.5835 54.4167C60.6147 54.5314 61.1252 55.1146 61.6982 55.698L62.7502 56.7709L61.7607 57.7814C61.2085 58.3439 60.7085 58.9064 60.6357 59.0314C60.3752 59.5314 60.7815 60.1042 61.4065 60.1042C61.667 60.1042 61.9482 59.8751 63.1982 58.6146C64.417 57.3855 64.6877 57.0626 64.6877 56.8126C64.6877 56.573 64.417 56.2501 63.146 54.9792C61.594 53.4271 61.4482 53.3334 60.9795 53.5626Z" fill-rule="nonzero" fill="#FFFFFF"/>
		</g>
	</g>
</svg>
