<svg width="50.555664" height="50.555664" viewBox="0 0 50.5557 50.5557" fill="none" xmlns="http://www.w3.org/2000/svg" xmlns:xlink="http://www.w3.org/1999/xlink">
	<desc>
			Created with Pixso.
	</desc>
	<defs/>
	<circle id="Oval" cx="25.277832" cy="25.277832" r="25.277779" fill="#007AB7"/>
	<mask id="mask_311_560" fill="white">
		<path id="Linkedin" d="M20.5698 17.7419C20.5698 16.5366 19.5903 15.5557 18.387 15.5557C17.1765 15.5557 16.2041 16.5366 16.2041 17.7419C16.2041 18.947 17.1765 19.928 18.387 19.928C19.5903 19.928 20.5698 18.947 20.5698 17.7419ZM26.2295 21.5818L22.6333 21.5818L22.6333 33.7039L26.3904 33.7039L26.3904 27.7058C26.3904 26.1294 26.6841 24.5947 28.6431 24.5947C30.574 24.5947 30.595 26.4026 30.595 27.811L30.595 33.7039L34.3521 33.7039L34.3521 27.0613C34.3521 23.7959 33.6453 21.2876 29.8394 21.2876C28.0063 21.2876 26.782 22.2896 26.2783 23.2424L26.2295 23.2424L26.2295 21.5818ZM20.2615 21.5818L16.4976 21.5818L16.4976 33.7039L20.2615 33.7039L20.2615 21.5818Z" clip-rule="evenodd" fill-rule="evenodd" fill-opacity="1.000000"/>
	</mask>
	<path id="Linkedin" d="M20.5698 17.7419C20.5698 16.5366 19.5903 15.5557 18.387 15.5557C17.1765 15.5557 16.2041 16.5366 16.2041 17.7419C16.2041 18.947 17.1765 19.928 18.387 19.928C19.5903 19.928 20.5698 18.947 20.5698 17.7419ZM26.2295 21.5818L22.6333 21.5818L22.6333 33.7039L26.3904 33.7039L26.3904 27.7058C26.3904 26.1294 26.6841 24.5947 28.6431 24.5947C30.574 24.5947 30.595 26.4026 30.595 27.811L30.595 33.7039L34.3521 33.7039L34.3521 27.0613C34.3521 23.7959 33.6453 21.2876 29.8394 21.2876C28.0063 21.2876 26.782 22.2896 26.2783 23.2424L26.2295 23.2424L26.2295 21.5818ZM20.2615 21.5818L16.4976 21.5818L16.4976 33.7039L20.2615 33.7039L20.2615 21.5818Z" clip-rule="evenodd" fill-rule="evenodd" fill="#FFFFFF" fill-opacity="1.000000" mask="url(#mask_311_560)"/>
</svg>
