<svg width="50.555664" height="50.555664" viewBox="0 0 50.5557 50.5557" fill="none" xmlns="http://www.w3.org/2000/svg" xmlns:xlink="http://www.w3.org/1999/xlink">
	<desc>
			Created with Pixso.
	</desc>
	<defs/>
	<circle id="Oval" cx="25.277832" cy="25.277832" r="25.277779" fill="#2AA3EF"/>
	<path id="Twitter" d="M35.6482 18.8467C34.8855 19.1851 34.0645 19.4138 33.2041 19.5173C34.0828 18.99 34.7576 18.157 35.0747 17.1638C34.2522 17.6514 33.342 18.0054 32.3721 18.1956C31.5959 17.3684 30.4905 16.8521 29.2666 16.8521C26.9165 16.8521 25.0105 18.7563 25.0105 21.1062C25.0105 21.4409 25.0496 21.7646 25.1216 22.0764C21.5854 21.8997 18.4509 20.2046 16.3521 17.6309C15.9849 18.2593 15.7761 18.99 15.7761 19.77C15.7761 21.2458 16.5278 22.5483 17.6687 23.3103C16.9707 23.2888 16.3145 23.0974 15.7422 22.7783C15.7422 22.7964 15.7422 22.8145 15.7422 22.8325C15.7422 24.8933 17.2075 26.6123 19.155 27.0037C18.7974 27.1011 18.4229 27.1528 18.0337 27.1528C17.7603 27.1528 17.4932 27.1265 17.2332 27.0759C17.7749 28.7659 19.3464 29.9963 21.2085 30.0312C19.7517 31.1711 17.9165 31.8513 15.9226 31.8513C15.5798 31.8513 15.2405 31.832 14.9075 31.7922C16.7903 32.9998 19.0269 33.7039 21.4307 33.7039C29.2568 33.7039 33.5374 27.2214 33.5374 21.5999C33.5374 21.4143 33.5325 21.2327 33.5251 21.0496C34.356 20.4502 35.0784 19.7002 35.6482 18.8479L35.6482 18.8467Z" fill-rule="evenodd" fill="#FFFFFF"/>
</svg>
