<svg width="50.555664" height="50.555664" viewBox="0 0 50.5557 50.5557" fill="none" xmlns="http://www.w3.org/2000/svg" xmlns:xlink="http://www.w3.org/1999/xlink">
	<desc>
			Created with Pixso.
	</desc>
	<defs/>
	<circle id="Oval" cx="25.277832" cy="25.277832" r="25.277779" fill="#F52929"/>
	<mask id="mask_311_567" fill="white">
		<path id="Youtube" d="M36.7036 20.1221C36.7036 20.1221 36.4622 18.3484 35.7783 17.5647C34.8931 16.5337 33.8875 16.5337 33.4448 16.4924C30.1863 16.2449 25.2783 16.2036 25.2783 16.2036C25.2783 16.2036 20.3701 16.2449 17.1116 16.4924C16.6689 16.5337 15.6633 16.575 14.7783 17.5647C14.0542 18.3484 13.853 20.1221 13.853 20.1221C13.853 20.1221 13.6116 22.2256 13.6116 24.3291L13.6116 26.2676C13.6116 28.3711 13.853 30.4333 13.853 30.4333C13.853 30.4333 14.0945 32.207 14.7783 32.9907C15.6633 34.0217 16.8301 33.9805 17.353 34.1042C19.2036 34.3105 25.2783 34.3518 25.2783 34.3518C25.2783 34.3518 30.1863 34.3518 33.4448 34.063C33.8875 34.0217 34.8931 33.9805 35.7783 32.9907C36.4622 32.207 36.7036 30.4333 36.7036 30.4333C36.7036 30.4333 36.9448 28.3298 36.9448 26.2676L36.9448 24.3291C36.9448 22.2256 36.7036 20.1221 36.7036 20.1221ZM22.4622 30.0623L22.4622 21.1118L30.1057 25.6902L22.4622 30.0623Z" clip-rule="evenodd" fill-rule="evenodd" fill-opacity="1.000000"/>
	</mask>
	<path id="Youtube" d="M36.7036 20.1221C36.7036 20.1221 36.4622 18.3484 35.7783 17.5647C34.8931 16.5337 33.8875 16.5337 33.4448 16.4924C30.1863 16.2449 25.2783 16.2036 25.2783 16.2036C25.2783 16.2036 20.3701 16.2449 17.1116 16.4924C16.6689 16.5337 15.6633 16.575 14.7783 17.5647C14.0542 18.3484 13.853 20.1221 13.853 20.1221C13.853 20.1221 13.6116 22.2256 13.6116 24.3291L13.6116 26.2676C13.6116 28.3711 13.853 30.4333 13.853 30.4333C13.853 30.4333 14.0945 32.207 14.7783 32.9907C15.6633 34.0217 16.8301 33.9805 17.353 34.1042C19.2036 34.3105 25.2783 34.3518 25.2783 34.3518C25.2783 34.3518 30.1863 34.3518 33.4448 34.063C33.8875 34.0217 34.8931 33.9805 35.7783 32.9907C36.4622 32.207 36.7036 30.4333 36.7036 30.4333C36.7036 30.4333 36.9448 28.3298 36.9448 26.2676L36.9448 24.3291C36.9448 22.2256 36.7036 20.1221 36.7036 20.1221ZM22.4622 30.0623L22.4622 21.1118L30.1057 25.6902L22.4622 30.0623Z" clip-rule="evenodd" fill-rule="evenodd" fill="#FFFFFF" fill-opacity="1.000000" mask="url(#mask_311_567)"/>
</svg>
